Coordinates
version=1
nRows=17
nColumns=27
inDegrees=yes

Units are S.I. units (second, meters, Newtons, ...)
If the header above contains a line with 'inDegrees', this indicates whether rotational values are in degrees (yes) or radians (no).

endheader
time	pelvis_rotation	pelvis_tilt	pelvis_list	pelvis_tx	pelvis_ty	pelvis_tz	hip_flexion_r	hip_adduction_r	hip_rotation_r	knee_angle_r	knee_rotation_r	knee_adduction_r	knee_angle_r_beta	ankle_angle_r	subtalar_angle_r	mtp_angle_r	hip_flexion_l	hip_adduction_l	hip_rotation_l	knee_angle_l	knee_rotation_l	knee_adduction_l	knee_angle_l_beta	ankle_angle_l	subtalar_angle_l	mtp_angle_l
      5.33500000	      7.66897136	    -42.63633193	      5.08589866	     -0.02803144	      0.65928031	     -1.17763235	    103.22610017	    -44.02921199	     -3.96804608	     71.88089838	      0.00000000	      9.71583280	      1.25455835	      4.97331784	      0.00000000	      0.00000000	    103.04555647	    -27.73852536	     -4.41785756	     67.47838116	      0.00000000	     -9.85571802	      1.17771993	     -0.45093853	      0.00000000	      0.00000000
      5.34000000	      7.32406108	    -42.61857857	      5.02239897	     -0.02772622	      0.66014147	     -1.17767000	    103.10825953	    -43.64260432	     -3.84723894	     71.67747950	      0.00000000	      9.47515137	      1.25100802	      4.86300213	      0.00000000	      0.00000000	    102.78890019	    -28.02312169	     -4.59865804	     67.34485611	      0.00000000	     -9.72884739	      1.17538947	     -0.50203024	      0.00000000	      0.00000000
      5.34500000	      7.59121930	    -42.48335561	      5.06185057	     -0.02702083	      0.66086232	     -1.17807197	    102.69518612	    -44.04027182	     -4.25155477	     71.55855628	      0.00000000	      9.71929048	      1.24893242	      4.86125413	      0.00000000	      0.00000000	    102.58453134	    -27.75756694	     -4.58429654	     67.26566155	      0.00000000	     -9.85572180	      1.17400727	     -0.44428441	      0.00000000	      0.00000000
      5.35000000	      7.52449187	    -42.40477436	      5.05048328	     -0.02651044	      0.66161438	     -1.17826553	    102.45101198	    -44.01494208	     -4.35958880	     71.40686158	      0.00000000	      9.72063785	      1.24628484	      4.81228682	      0.00000000	      0.00000000	    102.34553481	    -27.79980641	     -4.68800496	     67.16645056	      0.00000000	     -9.85587265	      1.17227571	     -0.44079924	      0.00000000	      0.00000000
      5.35500000	      7.49102358	    -42.30979669	      5.03266297	     -0.02597323	      0.66235156	     -1.17846375	    102.16471562	    -44.02771071	     -4.50744924	     71.25393058	      0.00000000	      9.72353707	      1.24361569	      4.76622163	      0.00000000	      0.00000000	    102.10218836	    -27.80414755	     -4.75784770	     67.06348944	      0.00000000	     -9.85585230	      1.17047870	     -0.41904619	      0.00000000	      0.00000000
      5.36000000	      7.55259889	    -42.20348827	      5.00269060	     -0.02542176	      0.66307504	     -1.17868066	    101.80430160	    -44.15035822	     -4.76607910	     71.10379053	      0.00000000	      9.72652953	      1.24099526	      4.72680638	      0.00000000	      0.00000000	    101.89698858	    -27.70708254	     -4.74040716	     66.96476864	      0.00000000	     -9.85571250	      1.16875570	     -0.40295127	      0.00000000	      0.00000000
      5.36500000	      7.46729587	    -42.10537426	      4.97770900	     -0.02488382	      0.66376782	     -1.17883335	    101.54452940	    -44.10827084	     -4.86696269	     70.96592569	      0.00000000	      9.72788879	      1.23858906	      4.68026310	      0.00000000	      0.00000000	    101.64399289	    -27.77024577	     -4.84139855	     66.87498320	      0.00000000	     -9.85597508	      1.16718864	     -0.38676444	      0.00000000	      0.00000000
      5.37000000	      7.44161839	    -42.01156090	      4.96922023	     -0.02433128	      0.66449044	     -1.17899321	    101.26649114	    -44.12349832	     -5.01279044	     70.81793300	      0.00000000	      9.72989435	      1.23600610	      4.62868441	      0.00000000	      0.00000000	    101.39452132	    -27.77257707	     -4.91900413	     66.76619168	      0.00000000	     -9.85592132	      1.16528987	     -0.33788812	      0.00000000	      0.00000000
      5.37500000	      7.38837125	    -41.92786095	      4.92981689	     -0.02380179	      0.66506598	     -1.17912946	    101.01672565	    -44.11206161	     -5.13119253	     70.71027627	      0.00000000	      9.73078443	      1.23412714	      4.60166165	      0.00000000	      0.00000000	    101.20622935	    -27.80479596	     -4.96117143	     66.70548559	      0.00000000	     -9.85638416	      1.16423035	     -0.36265450	      0.00000000	      0.00000000
      5.38000000	      6.95895090	    -41.92153137	      4.89680353	     -0.02349704	      0.66570275	     -1.17904978	    101.04505055	    -43.61430775	     -4.81976330	     70.56718346	      0.00000000	      9.49927672	      1.23162970	      4.54768192	      0.00000000	      0.00000000	    100.93269330	    -28.19689820	     -5.23392512	     66.60426012	      0.00000000	     -9.73109970	      1.16246364	     -0.38416900	      0.00000000	      0.00000000
      5.38500000	      7.23366882	    -41.76943677	      4.93151023	     -0.02274137	      0.66633899	     -1.17935462	    100.61013281	    -44.00268654	     -5.22492944	     70.46794892	      0.00000000	      9.73223498	      1.22989773	      4.55033329	      0.00000000	      0.00000000	    100.72415226	    -27.92946667	     -5.19282483	     66.52925454	      0.00000000	     -9.85677733	      1.16115454	     -0.33642245	      0.00000000	      0.00000000
      5.39000000	      7.25640885	    -41.65804275	      4.90002021	     -0.02214115	      0.66697580	     -1.17949333	    100.27944766	    -44.07199958	     -5.42574107	     70.34938838	      0.00000000	      9.73464878	      1.22782845	      4.54621718	      0.00000000	      0.00000000	    100.50950436	    -27.88062675	     -5.19533158	     66.44430603	      0.00000000	     -9.85672119	      1.15967191	     -0.30261014	      0.00000000	      0.00000000
      5.39500000	      7.12816029	    -41.58010712	      4.87566572	     -0.02157040	      0.66764773	     -1.17954937	    100.06675081	    -43.95987235	     -5.46261863	     70.22433900	      0.00000000	      9.73508257	      1.22564593	      4.53835390	      0.00000000	      0.00000000	    100.25923775	    -27.99244245	     -5.32387445	     66.35313851	      0.00000000	     -9.85711502	      1.15808074	     -0.29992936	      0.00000000	      0.00000000
      5.40000000	      7.26395523	    -41.49406589	      4.87246593	     -0.02096319	      0.66831068	     -1.17972621	     99.72765448	    -44.14174229	     -5.74237626	     70.09187389	      0.00000000	      9.73733923	      1.22333398	      4.52179642	      0.00000000	      0.00000000	    100.08756723	    -27.82308035	     -5.26060528	     66.25192117	      0.00000000	     -9.85665764	      1.15631416	     -0.25845043	      0.00000000	      0.00000000
      5.40500000	      7.13297448	    -41.39349369	      4.84732189	     -0.02035217	      0.66900247	     -1.17976508	     99.48995992	    -44.01908275	     -5.76212323	     69.97288836	      0.00000000	      9.73704046	      1.22125729	      4.49749959	      0.00000000	      0.00000000	     99.81030774	    -27.94132266	     -5.39904266	     66.16054370	      0.00000000	     -9.85710093	      1.15471932	     -0.26264521	      0.00000000	      0.00000000
      5.41000000	      6.68780616	    -41.38296647	      4.72748071	     -0.01995173	      0.66968934	     -1.17962126	     99.41375925	    -43.51529956	     -5.55668490	     69.81504216	      0.00000000	      9.50934817	      1.21850235	      4.45048255	      0.00000000	      0.00000000	     99.57376615	    -28.32747123	     -5.57449102	     66.06754632	      0.00000000	     -9.73224709	      1.15309621	     -0.27576808	      0.00000000	      0.00000000
      5.41500000	      6.58563188	    -41.26480655	      4.17958463	     -0.01924601	      0.67045641	     -1.17953241	     98.49252191	    -43.52986296	     -6.48949461	     69.60323968	      0.00000000	      9.51625655	      1.21480570	      4.48011380	      0.00000000	      0.00000000	     99.64809534	    -28.30422666	     -4.99976611	     66.02129688	      0.00000000	     -9.73434971	      1.15228901	     -0.23569828	      0.00000000	      0.00000000
